<?xml version="1.0" encoding="UTF-8" standalone="no"?>
<svg
   xmlns:dc="http://purl.org/dc/elements/1.1/"
   xmlns:cc="http://creativecommons.org/ns#"
   xmlns:rdf="http://www.w3.org/1999/02/22-rdf-syntax-ns#"
   xmlns:svg="http://www.w3.org/2000/svg"
   xmlns="http://www.w3.org/2000/svg"
   viewBox="0 0 1853.8667 1572.2667"
   height="1572.2667"
   width="1853.8667"
   id="svg869"
   version="1.1">
  <metadata
     id="metadata875">
    <rdf:RDF>
      <cc:Work
         rdf:about="">
        <dc:format>image/svg+xml</dc:format>
        <dc:type
           rdf:resource="http://purl.org/dc/dcmitype/StillImage" />
        <dc:title></dc:title>
      </cc:Work>
    </rdf:RDF>
  </metadata>
  <defs
     id="defs873" />
  <path
     id="path879-7"
     d="m 9.903239,1541.0879 0.101307,-34.8842 0.937615,-3.3992 c 1.321123,-4.7899 2.886796,-8.3624 5.140348,-11.7292 8.47536,-12.6624 20.308051,-21.8431 34.101497,-26.4587 8.11605,-2.7158 15.035054,-3.682 26.374814,-3.6833 4.40129,0 10.15925,-0.1616 12.79556,-0.3582 21.34366,-1.5913 39.14542,-7.2798 38.20337,-12.2078 -0.26116,-1.3661 -2.05327,-3.0555 -3.24129,-3.0555 -2.33607,0 -3.30473,-5.1623 -2.73153,-14.5573 0.36908,-6.0483 0.29438,-8.1662 -0.28791,-8.1662 -0.15647,0 -0.69946,1.2461 -1.20667,2.7692 -1.8971,5.6964 -2.5692,5.7482 -7.56277,0.5835 -7.53805,-7.7962 -10.29212,-13.5793 -10.64309,-22.3482 -0.23027,-5.7535 0.32211,-8.9753 2.79744,-16.3156 1.7637,-5.2301 1.78813,-5.3618 1.64579,-8.8764 -0.16624,-4.1068 -0.68721,-5.5544 -3.25265,-9.0394 -2.27429,-3.0894 -2.20951,-3.8214 0.23493,-2.6557 1.09551,0.5224 1.29076,0.5231 2.2876,0.01 1.4434,-0.7464 4.06498,-4.7446 6.0125,-9.17 0.86051,-1.9552 2.90394,-7.4927 4.54093,-12.3055 5.82845,-17.1357 11.33022,-30.4515 18.20571,-44.063 7.1244,-14.1043 10.26296,-21.4114 11.06875,-25.7702 0.79205,-4.2846 5.8477,-11.1896 15.27638,-20.8642 17.34745,-17.8002 38.10334,-33.5326 45.59434,-34.5594 3.54266,-0.4855 4.56377,-2.9222 5.50259,-13.1311 0.51803,-5.6339 2.25919,-8.6579 4.98335,-8.655 2.83276,0 4.9454,2.5953 6.65364,8.1649 1.62572,5.3004 2.50043,6.3909 5.12592,6.3909 2.55281,0 6.83822,-2.2834 9.32369,-4.968 2.71733,-2.935 4.13254,-5.9433 4.54145,-9.6534 0.41605,-3.7744 0.83488,-5.0245 2.20734,-6.5876 1.38748,-1.5804 2.89491,-2.2246 5.20505,-2.2246 3.42264,0 6.33491,1.9461 9.02669,6.032 5.64215,8.5643 19.58222,12.2056 24.47328,6.3928 1.12602,-1.3381 2.47804,-3.9281 4.13547,-7.9221 2.33562,-5.6282 5.46366,-9.1184 8.17204,-9.1184 1.74822,0 2.90032,0.9614 3.92023,3.2712 0.73094,1.6554 0.85202,2.6109 1.02577,8.0905 0.22201,7.0064 0.196,6.9313 3.44992,9.97 3.6321,3.3918 11.94452,8.0964 15.67266,8.8704 3.4279,0.7116 4.40189,0.075 10.31549,-6.7367 3.3783,-3.8917 7.53407,-5.5611 11.19472,-4.4969 4.07813,1.1855 6.97364,5.1356 7.00753,9.5599 0.0286,3.6902 -1.36343,6.0669 -4.65929,7.9565 -2.33419,1.3383 -2.84042,1.8605 -2.84042,2.9302 0,2.2725 5.52348,7.3491 10.88974,10.0087 2.88319,1.429 3.26872,1.5266 6.02896,1.5266 2.85861,0 2.98442,-0.035 4.11052,-1.1631 1.14414,-1.1456 1.16165,-1.2125 1.16165,-4.4382 0,-3.6082 0.18503,-4.1627 1.38868,-4.1627 2.16908,0 4.23866,2.7105 5.4221,7.1011 0.89208,3.3098 0.88516,11.179 -0.012,13.7694 -0.81046,2.3397 -2.15247,3.9834 -3.25234,3.9834 -1.32045,0 -2.90281,1.6185 -3.74565,3.8316 -1.06726,2.8018 -1.13873,8.1435 -0.13641,10.1975 1.40071,2.8705 3.7788,2.8723 15.59413,0.011 3.66674,-0.8878 6.90435,-1.614 7.19474,-1.614 0.29039,0 -1.21643,1.8773 -3.34846,4.1718 -10.86269,11.6907 -14.03417,15.644 -14.52477,18.1058 -0.37141,1.8637 0.43522,3.1598 3.27249,5.2581 4.85859,3.5931 4.90632,5.2947 0.44896,16.0029 -3.12277,7.5023 -4.05798,11.6747 -3.09196,13.7949 0.89553,1.9653 -0.88148,7.4428 -5.41624,16.6954 -4.58271,9.3503 -10.14181,17.7734 -13.1729,19.9593 -1.40282,1.0117 -1.7761,1.544 -2.38537,3.402 -1.87208,5.7088 -3.16832,15.8852 -3.94398,30.9621 -0.72674,14.1254 -1.65263,23.9337 -2.7023,28.6259 -0.44551,1.9914 -0.73019,2.516 -1.85712,3.4215 -2.26076,1.8169 -5.04791,8.0273 -7.4913,16.6927 -3.2349,11.4722 -4.33304,21.1996 -2.89032,25.6014 2.29969,7.0166 -0.64715,7.1456 -12.77407,0.5597 -3.04026,-1.6511 -7.19437,-3.6282 -9.2314,-4.3936 -10.03592,-3.7707 -21.67284,-4.1315 -28.11687,-0.8719 -1.02352,0.5177 -2.65142,1.651 -3.61759,2.5184 -5.91518,5.3102 -10.17984,3.7053 -12.47285,-4.6937 -0.79625,-2.9162 -1.08432,-13.1647 -0.51691,-18.3835 1.12678,-10.3628 3.29744,-16.4738 7.44238,-20.9521 1.06004,-1.1453 4.65493,-4.1312 7.98874,-6.6354 10.03554,-7.5384 16.53617,-13.8992 25.95283,-25.395 7.87819,-9.6176 12.05837,-15.8288 13.84199,-20.5675 1.6884,-4.4856 0.85337,-5.5643 -2.95022,-3.8112 -3.03929,1.401 -6.0845,1.7496 -9.91335,1.1352 -5.29825,-0.8502 -7.80574,-2.2786 -10.0236,-5.7101 -1.71432,-2.6524 -2.59512,-5.8162 -2.61489,-9.3923 -0.0188,-3.4512 0.54667,-6.001 2.00901,-9.0539 2.01915,-4.2155 8.32903,-9.5865 11.26227,-9.5865 2.18795,0 3.52876,2.4124 3.52876,6.3489 0,0.9756 -0.41116,4.1403 -0.91364,7.0327 -1.08364,6.237 -1.07334,9.8958 0.0316,11.1348 1.0653,1.1948 2.74792,1.7586 5.22039,1.749 4.87325,-0.019 8.84692,-1.7474 12.55649,-5.4619 3.48224,-3.4868 4.88273,-6.3647 4.91174,-10.0928 0.0128,-1.6193 -0.2423,-3.6636 -0.62919,-5.0463 -0.54148,-1.9354 -0.58214,-2.5771 -0.24327,-3.8355 0.22381,-0.8313 0.70118,-1.7594 1.06072,-2.0627 3.07896,-2.5967 3.61826,-3.6962 5.11133,-10.421 1.96662,-8.8576 2.88011,-18.3344 2.63,-27.2847 -0.14272,-5.106 -0.31662,-6.7055 -0.94039,-8.6465 -0.92995,-2.8936 -2.6052,-5.2023 -4.42226,-6.0944 -1.73988,-0.8542 -2.88101,-0.3989 -3.67087,1.4645 -0.49061,1.1573 -0.50511,1.6545 -0.11101,3.816 0.24929,1.367 0.51909,3.0446 0.59965,3.7281 l 0.1464,1.2427 -0.90387,-1.4202 c -1.33134,-2.092 -5.15094,-10.9526 -7.32303,-16.9882 -3.07115,-8.5336 -5.05219,-9.9803 -11.2135,-8.1892 -4.34703,1.2637 -7.42471,0.081 -12.04485,-4.6306 -2.82705,-2.8828 -3.73099,-3.5614 -6.59449,-4.9511 -1.82511,-0.8857 -4.91609,-2.0479 -6.86888,-2.5825 -3.0604,-0.838 -4.23678,-0.9744 -8.52135,-0.9883 -4.61413,-0.015 -5.09676,0.047 -6.72759,0.8716 -0.96625,0.4882 -2.07589,1.327 -2.46594,1.864 l -0.70907,0.9765 0.71967,0.9763 c 1.26588,1.7174 3.74129,2.283 10.89207,2.4889 3.47863,0.1002 6.19482,0.2966 6.03595,0.4365 -0.15888,0.14 -2.60565,1.1678 -5.43721,2.2839 -6.90525,2.7222 -9.27048,4.2776 -10.68419,7.026 -0.77934,1.5152 -0.84225,2.7082 -0.27288,5.1748 0.35006,1.5167 0.30414,2.0837 -0.34098,4.2075 -1.91453,6.3031 -9.18578,15.1867 -15.29832,18.6904 -0.9458,0.5422 -2.78781,1.2093 -4.09338,1.4824 -2.92219,0.6114 -4.00771,1.294 -4.70258,2.9571 -1.07702,2.5776 0.78137,5.4331 3.8689,5.9446 2.12061,0.3513 2.74806,0.7549 3.3266,2.1395 0.63286,1.5147 0.62234,3.9405 -0.0301,6.9065 -1.63631,7.439 0.50639,12.0962 5.32268,11.5689 2.34584,-0.2568 5.54625,-1.8773 8.16941,-4.1364 3.08399,-2.6561 6.02858,-4.4985 7.61891,-4.7672 2.68914,-0.4543 5.95741,1.7874 6.72578,4.6132 2.08724,7.6766 -4.75203,30.0147 -12.93842,42.2591 -3.09159,4.624 -3.31277,5.0851 -3.66118,7.6323 -0.80655,5.8975 2.15939,11.48 6.09405,11.4704 0.90928,0 2.22153,-0.3778 3.37882,-0.9671 1.04065,-0.5298 2.04959,-0.9108 2.24206,-0.8467 0.19239,0.064 -0.22697,0.8721 -0.93206,1.7955 -1.02381,1.3408 -1.93978,1.9974 -4.54987,3.2611 -5.21971,2.5273 -10.21621,3.6035 -22.51237,4.849 -2.38259,0.2413 -4.26263,0.5511 -4.17779,0.6884 0.0849,0.1372 5.77638,3.3357 12.64781,7.1075 6.87151,3.772 12.34644,6.8991 12.1666,6.9492 -1.68351,0.4688 -20.66909,3.7623 -23.40565,4.0602 -5.80163,0.6316 -9.96633,-0.1939 -11.86028,-2.351 -1.26641,-1.4423 -1.62572,-3.0406 -1.32668,-5.9014 0.3043,-2.9115 -0.37787,-4.0965 -4.58759,-7.9692 -7.28396,-6.7009 -7.60704,-7.0383 -7.82544,-8.175 -0.42739,-2.2244 3.37477,-5.1378 8.05127,-6.1694 1.91243,-0.4218 5.273,-0.3605 12.02494,0.2195 2.14638,0.1844 2.85906,0.1104 3.796,-0.3942 1.32097,-0.7113 1.44791,-0.9541 2.10971,-4.0339 0.26702,-1.2427 0.90424,-2.9739 1.41604,-3.8473 1.31669,-2.2468 4.80682,-5.6518 8.22795,-8.0273 3.21094,-2.2295 5.37513,-4.6809 6.32244,-7.1614 0.5121,-1.3409 0.56794,-2.1592 0.33376,-4.8922 -0.67563,-7.8859 -0.2659,-9.7425 2.39987,-10.8746 l 1.46422,-0.6219 -1.4334,-0.5735 c -0.78836,-0.3154 -4.21303,-1.1564 -7.6102,-1.8687 -10.43987,-2.1893 -14.39918,-3.9435 -18.80663,-8.3323 -2.46872,-2.4584 -2.94128,-3.1831 -5.78877,-8.8762 -1.70524,-3.4095 -3.1705,-6.2692 -3.2561,-6.3547 -0.23907,-0.2391 -9.57057,19.0226 -10.38584,21.438 -2.12166,6.2856 -1.75581,9.205 1.7262,13.7737 2.9609,3.8847 2.87252,7.6479 -0.24004,10.224 -0.96482,0.7986 -2.56333,4.5136 -2.81758,6.5482 -0.15962,1.2777 -0.0541,2.4828 0.33564,3.8224 0.71298,2.4524 0.71621,3.4316 0.0143,4.4332 -0.95603,1.3649 -2.60843,1.9423 -6.289,2.1976 -5.07399,0.3518 -5.57346,1.178 -2.71131,4.4849 1.80015,2.0799 2.32472,3.1247 3.04965,6.0737 1.00225,4.0767 0.81294,10.7531 -0.5296,18.679 -0.6225,3.6751 -1.13182,6.9446 -1.13182,7.2656 0,0.3211 2.04065,-2.7657 4.53477,-6.8594 5.17965,-8.5017 6.72015,-10.8162 7.1991,-10.8162 0.58289,0 0.3775,2.5336 -0.9047,11.1594 -1.33112,8.9545 -1.54636,13.3456 -0.74778,15.2568 0.93491,2.2376 3.43001,3.5469 9.09155,4.7707 11.60505,2.5087 21.39244,2.6665 26.18828,0.4222 3.01802,-1.4123 3.56724,-1.408 2.55041,0.02 -2.12324,2.9818 -9.41793,6.6767 -21.63759,10.9598 -8.31551,2.9146 -13.5622,5.9714 -15.98101,9.3104 -0.58387,0.8061 -1.06252,1.881 -1.06358,2.3886 0,1.6542 -0.74619,3.6553 -1.67637,4.5173 -1.02817,0.9529 -2.10039,1.0448 -5.05993,0.4335 -2.31015,-0.4771 -5.59728,0.1035 -8.90682,1.5733 -2.56055,1.1373 -7.66257,5.02 -8.35444,6.3578 -0.50856,0.9836 -0.5012,1.121 0.0963,1.7884 0.35592,0.3976 1.8024,1.2512 3.21431,1.8971 3.45315,1.5793 4.76218,2.6443 5.96343,4.8515 1.41852,2.6063 1.41544,5.4057 -0.009,8.0226 -1.23447,2.2681 -3.08858,3.6984 -6.08833,4.6966 -1.23643,0.4115 -2.3342,0.8875 -2.43949,1.0577 -0.38907,0.6297 1.36118,1.0913 5.42248,1.4302 11.55567,0.9645 12.97081,1.5548 10.97105,4.5766 -2.26956,3.4296 -11.10903,5.2864 -23.13344,4.8593 -16.58036,-0.5889 -28.19894,-0.6744 -32.17419,-0.2367 -7.57389,0.8337 -12.01704,2.6007 -18.10755,7.2008 -5.69025,4.2977 -13.42001,10.3758 -13.43579,10.5649 -0.008,0.098 2.50163,1.1218 5.57729,2.2756 7.47349,2.8035 10.85111,4.5617 13.14968,6.8452 3.23956,3.2184 3.25482,3.2903 3.26376,15.4147 0.012,16.2829 1.39365,29.8352 3.09948,30.4038 0.20412,0.068 0.69998,-0.4337 1.1019,-1.1149 0.40613,-0.6884 1.38666,-1.5732 2.20726,-1.9919 1.30264,-0.6645 1.83833,-0.7257 4.55017,-0.5195 l 3.0737,0.2338 2.84043,-1.4438 c 4.19552,-2.1326 7.11643,-4.4726 14.02469,-11.2353 18.00836,-17.6287 41.06943,-36.2504 51.71417,-41.7587 2.96165,-1.5327 3.6744,-1.671 3.6744,-0.7132 0,1.1272 -1.85276,3.2891 -6.59464,7.6952 -7.37586,6.8536 -10.0384,9.6502 -11.89469,12.4938 -2.215,3.3931 -2.75881,5.0788 -2.13369,6.6141 1.28137,3.1472 0.80422,3.4125 -2.65667,1.477 -2.35742,-1.3182 -3.9509,-1.5839 -4.28465,-0.7142 -0.11145,0.2907 -0.01,1.3336 0.22644,2.3175 0.36539,1.5231 0.33954,2.0646 -0.17398,3.6434 -1.57049,4.8289 -5.92781,10.5703 -16.08526,21.1951 -7.17415,7.5043 -10.72628,11.5744 -10.72628,12.2903 0,1.0293 3.20763,1.1317 9.47949,0.3028 10.89357,-1.4397 12.29962,-1.393 10.55576,0.3509 -0.4985,0.4985 -3.78819,0.5579 -30.88305,0.5579 h -30.32504 l -0.19923,-0.9764 c -1.05057,-5.1479 -3.8713,-13.2536 -8.00046,-22.9898 -2.9131,-6.869 -8.8373,-18.6801 -10.48361,-20.9014 -1.26814,-1.7111 -1.29805,-1.7268 -2.96977,-1.5662 -5.37919,0.5169 -10.47707,6.1141 -13.34215,14.6488 -1.33052,3.9636 -2.20192,8.7312 -2.71372,14.8478 -0.37524,4.4848 -0.36412,5.4722 0.0763,6.7461 0.63099,1.8254 1.68502,2.084 3.89633,0.9559 0.81489,-0.4157 1.56515,-0.6723 1.66736,-0.5701 0.51382,0.5138 -0.49226,2.9067 -2.59528,6.1724 l -2.33937,3.6329 H 53.983992 9.801782 Z M 316.29469,1417.3108 c 0.54456,-0.6094 1.09115,-1.5108 1.21471,-2.0029 0.34563,-1.3774 -0.18233,-4.054 -0.95145,-4.8231 -0.63482,-0.6348 -0.7731,-0.6479 -1.71402,-0.1613 -1.93197,0.9991 -4.64531,4.7344 -4.64531,6.3949 0,0.2992 0.33804,0.8822 0.75123,1.2954 0.62648,0.6264 1.0508,0.7225 2.55311,0.5782 1.45054,-0.1394 1.99473,-0.3892 2.79173,-1.2812 z M 180.09763,1324.024 c 1.48346,-0.7039 3.59692,-2.9999 4.29127,-4.6617 0.64549,-1.5448 0.70524,-3.8283 0.11859,-4.5351 -1.01518,-1.2233 -4.15419,-0.1602 -6.1057,2.0677 -1.88755,2.1549 -2.63969,5.7579 -1.47135,7.0489 0.72335,0.7993 1.60483,0.8216 3.16719,0.08 z m 34.77187,-22.3888 c 0.79655,-1.6787 0.57703,-5.3215 -0.4625,-7.6713 -0.83683,-1.8918 -1.69576,-2.1788 -2.10813,-0.7044 -0.45528,1.6281 -0.32398,7.9883 0.1833,8.8764 0.68863,1.2056 1.67585,0.9985 2.38733,-0.5007 z m -14.03101,-3.064 c 1.27971,-0.6475 1.30512,-1.5316 0.0624,-2.1743 -1.75739,-0.9088 -3.66636,-1.0359 -6.11945,-0.4074 -2.88071,0.7379 -4.0876,1.4758 -3.52432,2.1544 0.54298,0.6543 1.35306,0.7809 5.3238,0.8316 2.09219,0.027 3.70882,-0.1268 4.25752,-0.4043 z m -88.76063,277.0937 c 0,-0.6481 1.50292,-2.1783 2.1394,-2.1783 1.05771,0 2.41851,0.7466 3.01207,1.6525 l 0.54577,0.8329 h -2.84862 c -1.56672,0 -2.84862,-0.1382 -2.84862,-0.3071 z m 12.69936,-0.8468 c -0.89846,-2.5869 -3.64682,-7.5599 -5.60013,-10.133 -3.49442,-4.6032 -5.6801,-5.8771 -9.46604,-5.517 -2.01998,0.1922 -2.26017,0.1374 -3.10669,-0.7092 -0.56268,-0.5626 -0.91748,-1.3136 -0.91748,-1.9421 0,-1.5853 1.92709,-5.0708 4.18605,-7.5712 2.80503,-3.1049 3.98021,-4.5682 3.98021,-4.9557 0,-0.6198 -2.04779,-0.3257 -6.0797,0.8732 -2.22168,0.6606 -4.39888,1.2847 -4.83823,1.3869 -1.32969,0.3095 -0.92281,-0.5741 0.88764,-1.9277 7.0131,-5.2436 11.93505,-7.0409 13.61203,-4.9703 0.55786,0.6887 0.67894,1.4168 0.67894,4.0842 0,2.1787 0.23312,4.0629 0.70914,5.7303 2.28482,8.0039 7.67212,18.7609 13.09249,26.1422 0.46723,0.6362 0.3394,0.6633 -3.12518,0.6633 h -3.61233 z m 123.1438,-1.198 c -0.44355,-4.3292 -1.77076,-6.3459 -4.43232,-6.7347 -3.59339,-0.525 -7.78936,-2.8327 -10.73297,-5.9028 -3.0571,-3.1885 -2.03313,-3.8234 3.88017,-2.4057 4.21341,1.01 6.82259,0.9518 8.17046,-0.1823 1.44528,-1.2161 1.75409,-2.9115 2.00435,-11.0045 1.00112,-32.3751 4.02642,-53.3871 8.99557,-62.4787 1.01863,-1.8636 2.16419,-3.2084 4.6417,-5.4482 1.8091,-1.6358 3.37439,-2.8889 3.47841,-2.7849 0.10401,0.1041 -0.77521,1.5172 -1.95384,3.1405 -1.17864,1.6232 -2.49638,3.7501 -2.92836,4.7265 -0.98098,2.2174 -1.32435,7.195 -0.69532,10.0785 0.58049,2.6607 5.07497,14.6552 5.36784,14.3252 0.12693,-0.1429 1.63812,-3.2707 3.35823,-6.9505 3.79135,-8.1109 5.4823,-10.6117 10.60085,-15.6778 2.98239,-2.9518 4.81253,-4.4206 7.49401,-6.0143 6.08969,-3.6193 9.8318,-6.8707 10.3327,-8.9779 0.37412,-1.574 1.1645,-2.195 3.84125,-3.018 3.25504,-1.0009 11.19644,-1.1509 12.11842,-0.229 0.51067,0.5107 0.41943,0.6836 -1.02494,1.9437 -0.87201,0.7607 -4.10271,2.974 -7.17934,4.9183 -8.07366,5.1025 -12.19952,8.2813 -17.04203,13.1302 -8.09095,8.1018 -12.35433,15.1773 -16.91472,28.0716 -4.39558,12.4282 -6.73037,22.6007 -6.80462,29.647 -0.0406,3.8508 0.0541,4.6575 0.71561,6.0944 0.93769,2.0367 1.83863,2.5568 4.05934,2.3434 2.25092,-0.2163 4.69281,-1.7268 8.81843,-5.455 3.52643,-3.1867 6.12749,-4.931 9.25478,-6.2063 1.53028,-0.6242 2.76557,-0.8137 5.70888,-0.8762 4.15208,-0.088 5.12502,-0.4173 6.94704,-2.3497 1.42544,-1.5119 2.67569,-4.0272 3.67696,-7.3977 1.41462,-4.7619 3.64998,-8.345 6.44983,-10.3387 0.58431,-0.416 2.03034,-0.8632 3.40723,-1.0535 4.15148,-0.5738 5.47125,-1.5078 4.65681,-3.2954 -1.10265,-2.4201 3.58625,-7.5413 13.6266,-14.8829 3.66306,-2.6784 6.74217,-4.8698 6.84258,-4.8698 0.1004,0 -3.55844,4.3538 -8.13093,9.6752 -4.57234,5.3214 -8.26974,9.7228 -8.21638,9.7808 0.25387,0.2761 11.55988,-6.0559 14.45292,-8.0942 1.8015,-1.2694 5.52235,-4.4651 8.26861,-7.1015 5.34604,-5.1322 7.81431,-6.728 11.65127,-7.5328 2.31262,-0.4851 3.08986,-0.2434 3.08986,0.9605 0,2.1429 -4.02297,6.6304 -13.84718,15.4464 -8.92373,8.0079 -15.08541,14.5985 -16.76592,17.9329 -0.29528,0.5858 -0.64745,1.7043 -0.78272,2.4854 -0.41643,2.406 -2.92257,6.9824 -5.74767,10.4958 -3.0861,3.8381 -4.1018,5.6633 -4.94149,8.8801 -1.08687,4.1632 0.14219,9.2682 2.4246,10.0708 2.03479,0.7156 4.13224,-0.9598 10.99534,-8.7836 4.606,-5.2508 8.16242,-8.6218 11.01584,-10.4416 1.26326,-0.8057 1.93318,-0.9639 4.33463,-1.0244 5.23812,-0.1318 10.76679,-2.4836 29.29205,-12.4607 6.54189,-3.5233 17.5663,-9.4067 24.49876,-13.0742 16.00784,-8.4687 18.03022,-9.6015 23.43368,-13.1257 5.50597,-3.5912 9.94153,-7.2676 12.2994,-10.1945 3.12293,-3.8765 3.7812,-5.1357 6.3673,-12.1801 2.45151,-6.6776 4.08475,-9.7261 6.94651,-12.9659 3.50892,-3.9726 5.29878,-6.3608 8.91869,-11.9003 4.45495,-6.8173 8.48371,-13.8342 11.61265,-20.2257 3.05138,-6.2333 4.06595,-8.9286 4.59315,-12.2018 1.24537,-7.7334 21.92235,-41.2369 33.81907,-54.7982 4.26556,-4.8623 7.8718,-11.7471 14.84056,-28.3323 7.38616,-17.5787 10.18157,-27.2528 9.28168,-32.1209 -0.51142,-2.7663 -1.46947,-4.4155 -3.83951,-6.609 -3.57385,-3.3078 -8.17047,-5.2602 -11.18532,-4.7508 -1.74138,0.2942 -3.37282,1.9122 -3.66982,3.6396 -0.12461,0.7247 -0.69104,3.7143 -1.25867,6.6435 -0.96325,4.9709 -1.56432,10.1144 -2.41461,20.6621 -0.35172,4.3629 -0.90808,6.2145 -1.99224,6.6305 -0.78942,0.303 -2.64278,-0.5392 -4.20462,-1.9104 -4.48523,-3.9382 -5.61652,-11.5931 -4.89835,-33.1457 0.78092,-23.436 -0.66939,-33.5048 -6.36505,-44.1904 -1.48255,-2.7813 -1.64984,-3.2747 -1.04508,-3.0828 0.84104,0.267 0.82683,0.3433 0.34209,-1.8435 -0.34976,-1.5781 -0.61415,-1.8876 -3.57828,-4.1893 -2.01381,-1.5638 -4.55317,-4.0652 -6.84851,-6.746 -6.43284,-7.5134 -14.31358,-14.6288 -18.66505,-16.8527 -0.68344,-0.3493 -2.12143,-0.8207 -3.19545,-1.0476 -1.07409,-0.2269 -2.59197,-0.8317 -3.37304,-1.3439 -2.75843,-1.809 -10.46925,-8.3216 -15.48154,-13.0759 -6.17852,-5.8605 -12.09513,-10.5991 -19.84646,-15.8952 -5.29073,-3.6148 -42.37702,-33.1636 -56.45372,-44.98 -2.83156,-2.3769 -7.465,-6.1059 -10.29663,-8.2866 -2.83156,-2.1807 -22.08438,-17.617 -42.78413,-34.3028 -60.75227,-48.9718 -59.71846,-48.1261 -58.93912,-48.2132 4.00087,-0.4473 21.44595,-1.1634 28.33985,-1.1634 h 8.73915 l 67.20631,46.2041 c 36.96342,25.4122 67.9253,46.7927 68.80399,47.5121 0.87877,0.7195 4.0253,3.0297 6.99229,5.1337 7.043,4.9945 14.02206,10.6121 16.33912,13.1518 1.94474,2.1315 3.0238,2.4622 3.2337,0.9909 0.0624,-0.4373 0.2347,-0.7952 0.38298,-0.7952 0.67992,0 6.8897,4.6527 9.44507,7.0768 5.23774,4.9685 14.1904,11.1558 22.94939,15.8604 2.41438,1.2968 7.38564,4.3636 11.04719,6.8149 5.4971,3.6803 6.65725,4.6029 6.65725,5.2941 0,1.5177 0.98804,3.2394 2.47863,4.3192 1.81105,1.3119 3.1197,1.6246 4.47201,1.0682 0.57094,-0.2349 1.15789,-0.4012 1.30436,-0.3697 0.14648,0.032 0.26635,-0.1887 0.26635,-0.4894 0,-0.3007 0.3073,-1.1491 0.68284,-1.8853 2.37891,-4.6631 4.34448,-20.1736 7.13831,-56.3295 0.40748,-5.2726 0.97361,-10.4179 1.25814,-11.434 0.60266,-2.1522 1.52554,-2.9458 3.42557,-2.9458 2.43407,0 5.30772,3.3524 6.69528,7.8107 1.86486,5.9918 5.55918,9.5233 10.07282,9.629 4.58278,0.1073 5.15853,0.9895 2.03162,3.1129 -2.62714,1.7841 -4.42143,3.8505 -5.73879,6.6091 -2.97075,6.2209 -4.69492,14.8897 -6.00882,30.2113 -0.75785,8.8373 -1.43732,11.9452 -3.69395,16.8972 -1.66961,3.6637 -3.12796,5.842 -6.96988,10.4105 -3.75392,4.4637 -5.3943,7.0663 -5.25909,8.3437 0.084,0.7933 0.23906,0.8789 1.45887,0.8057 1.90552,-0.1146 6.76855,-2.5093 14.25752,-7.0212 7.22128,-4.3505 10.79452,-6.0976 16.11539,-7.8791 5.05618,-1.6929 8.07945,-1.9012 10.696,-0.7369 7.01324,3.1206 5.64162,7.8784 -3.55529,12.3323 -1.65984,0.8038 -5.81402,2.3583 -9.2314,3.4543 -7.33814,2.3536 -10.35413,3.5925 -13.34734,5.4829 -3.31089,2.091 -4.03957,3.584 -2.62631,5.3806 1.1279,1.4339 3.49824,2.168 6.12997,1.8984 2.94188,-0.3014 3.80772,0.2432 3.80772,2.395 0,0.8328 -0.25011,2.2483 -0.55583,3.1454 -0.78949,2.3172 -0.56861,4.2183 0.55583,4.7842 1.29933,0.6539 5.89722,0.5555 11.54952,-0.2473 5.02529,-0.7137 10.46392,-0.9432 10.46392,-0.4414 0,0.1509 -0.57553,0.5843 -1.27889,0.963 -4.02033,2.1651 -6.51047,8.606 -4.37626,11.3193 0.64083,0.8146 0.99638,0.9354 2.75174,0.9347 5.80584,0 24.20476,-7.0795 30.88718,-11.8803 3.49126,-2.5083 4.84357,-2.3963 5.2137,0.4315 0.44754,3.4196 1.62828,4.5468 3.66141,3.4954 1.39725,-0.7225 1.9987,-0.7148 2.74858,0.035 0.53224,0.5322 0.57335,1.1464 0.35398,5.2852 -0.17684,3.3374 -0.1222,5.1036 0.19036,6.1466 0.70231,2.3443 2.59948,4.2432 5.61006,5.6151 6.16634,2.8101 12.23732,9.4328 17.0545,18.6042 3.6578,6.9641 4.23197,10.8217 2.46391,16.5532 -3.18388,10.3212 -12.01193,18.6062 -23.02876,21.6124 -3.22476,0.88 -9.89568,0.8824 -13.61082,0.01 -5.13524,-1.2128 -7.86436,-0.3374 -8.64806,2.7737 -0.79873,3.1712 -2.1394,3.9312 -6.78636,3.8472 -3.66418,-0.066 -4.73662,0.212 -6.23421,1.617 -2.24025,2.1018 -3.73926,5.4539 -5.73834,12.8323 -1.57424,5.8101 -3.44263,10.2249 -5.61697,13.2719 -2.14331,3.0036 -3.73521,4.2806 -6.79178,5.4487 -1.83126,0.6997 -2.9748,1.4347 -4.31042,2.7703 -3.47292,3.4729 -5.06881,8.115 -7.75321,22.5517 -3.47224,18.6742 -8.39547,33.4775 -13.12631,39.4689 -1.08582,1.3751 -2.27204,2.3753 -3.75324,3.1648 -3.81487,2.0333 -5.43623,4.8893 -6.17266,10.8728 -0.72711,5.908 -1.98638,7.8428 -5.40662,8.3069 -3.23483,0.439 -5.64199,1.8563 -9.23696,5.4386 -6.25593,6.2338 -11.64323,16.2635 -15.17815,28.2578 -1.72597,5.8564 -2.34283,9.5009 -3.42534,20.2382 -0.92003,9.1265 -2.88372,17.8659 -5.26872,23.4486 -1.92385,4.5031 -2.5504,7.0606 -2.56814,10.483 -0.0233,4.4891 0.73237,6.6316 2.61842,7.4247 0.9516,0.4001 1.32443,0.3899 2.46639,-0.067 1.07537,-0.4303 1.45159,-0.4503 1.87403,-0.1 0.78918,0.655 0.6633,3.7157 -0.33308,8.0998 -1.8094,7.9611 -1.46249,8.2955 4.16042,4.0089 3.82802,-2.9183 6.16206,-4.3008 7.26088,-4.3008 0.39222,0 0.80452,0.4189 1.04846,1.0651 1.03615,2.745 4.64366,0.4766 13.80119,-8.678 11.7244,-11.7208 24.1045,-27.0205 34.06167,-42.0949 4.69626,-7.1097 7.27275,-11.7879 10.95084,-19.883 1.64135,-3.6127 4.1384,-8.9652 5.5488,-11.8943 1.41048,-2.9293 2.87823,-6.2046 3.26174,-7.2787 1.78272,-4.9925 4.12487,-17.0242 5.80598,-29.8246 1.96474,-14.9598 5.28141,-26.9842 7.44298,-26.9842 0.93115,0 1.25318,2.2291 1.25176,8.663 -0.008,30.4295 -14.37777,126.1524 -20.84525,138.8479 -0.3025,0.5938 -1.23733,1.8203 -2.0774,2.7256 -0.93288,1.0053 -1.61888,2.1338 -1.76242,2.8993 -0.27957,1.49 0.5771,4.7226 1.80842,6.8236 0.46302,0.79 1.0795,2.1102 1.37005,2.9337 l 0.52833,1.4974 h -32.3239 c -17.77808,0 -32.2706,-0.1199 -32.20544,-0.2663 0.0654,-0.1465 0.7386,-1.358 1.49668,-2.6922 1.57521,-2.7723 2.03666,-5.1464 1.14421,-5.887 -1.08326,-0.899 -4.17365,-0.3032 -7.82258,1.5082 -3.23182,1.6044 -8.19879,5.0113 -9.57395,6.567 l -0.67165,0.76 -111.5652,0.01 -111.56513,0.01 -0.24147,-2.3567 z m 254.03646,-349.8845 c 0.30895,-0.162 0.76416,-0.5383 1.01156,-0.8363 1.05576,-1.2722 -3.2204,-5.4165 -5.96906,-5.7852 -1.14489,-0.1535 -1.46009,-0.049 -1.94693,0.6462 -1.5293,2.1833 0.008,5.7139 2.80691,6.4558 0.83473,0.2211 3.31336,-0.069 4.09752,-0.4805 z m -294.12701,338.5891 c -1.751,-0.6298 -2.42272,-1.2613 -3.5256,-3.3144 -1.29828,-2.4168 -1.52456,-3.8187 -0.79595,-4.9307 0.53096,-0.8104 0.77836,-0.8952 2.15653,-0.7399 3.16772,0.3571 8.66828,4.0406 8.66828,5.8049 0,2.3378 -3.74858,4.1709 -6.50326,3.1801 z m -52.56611,-22.871 c -0.32736,-0.3618 -1.0057,-2.4788 -1.50742,-4.7045 -1.13881,-5.052 -1.10912,-9.2645 0.0765,-10.8558 1.14068,-1.5309 3.32998,-2.2033 7.24202,-2.2241 5.91676,-0.032 7.00708,1.5941 4.42676,6.6002 -2.11219,4.0977 -8.21848,11.842 -9.33729,11.842 -0.16789,0 -0.57312,-0.296 -0.90057,-0.6578 z m 18.99076,-0.125 c -0.5877,-1.5885 0.57658,-4.7526 2.43122,-6.6072 1.57078,-1.5708 2.88071,-1.7451 4.7742,-0.6354 1.56019,0.9143 3.40363,2.7948 3.40363,3.472 0,1.3937 -6.15026,4.5534 -8.86316,4.5534 -1.17712,0 -1.51186,-0.1501 -1.74589,-0.7828 z m 45.10525,-6.3165 c -1.76799,-0.4181 -2.0671,-0.8961 -0.99864,-1.5961 2.33945,-1.5329 5.99725,-1.9881 8.36436,-1.041 2.29068,0.9165 2.21064,2.0979 -0.17985,2.6525 -1.65465,0.3838 -5.53234,0.3755 -7.18587,-0.015 z m 136.43379,-8.4928 c -0.4065,-0.175 -1.1654,-0.825 -1.68652,-1.4443 -0.74447,-0.8847 -0.94738,-1.4986 -0.94738,-2.8658 0,-1.4677 0.13993,-1.8314 0.8947,-2.3261 0.83368,-0.5462 1.00413,-0.5445 2.49607,0.025 1.89124,0.7223 5.13051,3.7366 5.13051,4.7741 0,0.3988 -0.40854,0.9927 -0.90778,1.3198 -1.04824,0.6869 -3.89821,0.9828 -4.9796,0.5171 z m 60.2108,-33.0444 c -2.36358,-0.5637 -0.43477,-3.8911 3.45533,-5.9605 3.49824,-1.8611 12.05823,-3.6048 12.68869,-2.5847 0.36066,0.5837 -0.94904,1.903 -3.71709,3.7443 -5.08662,3.3839 -10.1564,5.3424 -12.42693,4.8009 z m 151.68957,-86.3476 c -1.18352,-0.5976 -1.33615,-1.8058 -0.45738,-3.621 0.82872,-1.712 3.92414,-4.8371 4.79111,-4.8371 1.34434,0 2.36102,3.6163 1.63511,5.8159 -0.74139,2.2466 -3.94458,3.6645 -5.96884,2.6422 z m 3.46946,-23.0949 c 0,-5.3924 2.36831,-20.7474 4.07873,-26.4443 0.30513,-1.0162 0.81324,-2.106 1.12918,-2.422 0.52781,-0.5278 0.62077,-0.5281 1.14504,0 0.46798,0.4682 0.56501,1.3834 0.53945,5.0849 -0.0549,7.9595 -2.10114,18.2628 -4.64967,23.4135 -1.80308,3.6442 -2.24273,3.717 -2.24273,0.3714 z m 1.24274,-34.2277 c -3.97006,-0.9667 -3.58685,-2.1479 1.53125,-4.7203 3.14969,-1.5829 5.58624,-2.029 7.26096,-1.3293 1.6433,0.6867 2.02381,1.8927 1.09731,3.4783 -1.03253,1.767 -3.01065,2.6031 -6.33904,2.6792 -1.56222,0.035 -3.15998,-0.013 -3.55048,-0.1079 z m -5.99762,-99.6554 c -1.03036,-1.0304 -1.45715,-3.2997 -1.18502,-6.3007 0.52359,-5.7739 5.78764,-11.3452 10.71966,-11.3452 2.62557,0 4.73971,1.4206 6.17416,4.1486 0.55178,1.0491 0.51458,3.4329 -0.0752,4.8279 -1.24822,2.9525 -9.0823,8.2904 -13.63472,9.2903 -0.92138,0.2024 -1.29016,0.088 -1.99893,-0.6209 z"
     style="fill:#cccccc;stroke-width:0.35505503" />
  <path
     id="path879"
     d="m -2.0967581,1541.0881 0.1013069,-34.8842 0.9376149,-3.3992 c 1.3211232,-4.7899 2.8867958,-8.3624 5.1403483,-11.7292 8.47536,-12.6624 20.308051,-21.8431 34.101497,-26.4587 8.11605,-2.7158 15.035056,-3.682 26.374816,-3.6833 4.401289,0 10.159245,-0.1616 12.795554,-0.3582 21.343666,-1.5913 39.145421,-7.2798 38.203371,-12.2078 -0.26116,-1.3661 -2.05327,-3.0555 -3.24129,-3.0555 -2.33607,0 -3.30473,-5.1623 -2.73153,-14.5573 0.36908,-6.0483 0.29438,-8.1662 -0.28791,-8.1662 -0.15647,0 -0.69946,1.2461 -1.20667,2.7692 -1.8971,5.6964 -2.5692,5.7482 -7.56277,0.5835 -7.538044,-7.7962 -10.292119,-13.5793 -10.643086,-22.3482 -0.23027,-5.7535 0.322108,-8.9753 2.797439,-16.3156 1.763702,-5.2301 1.788127,-5.3618 1.645786,-8.8764 -0.16624,-4.1068 -0.687204,-5.5544 -3.252643,-9.0394 -2.274295,-3.0894 -2.209513,-3.8214 0.23493,-2.6557 1.095512,0.5224 1.290761,0.5231 2.287597,0.01 1.443398,-0.7464 4.064977,-4.7446 6.012504,-9.17 0.860503,-1.9552 2.903933,-7.4927 4.540923,-12.3055 5.82845,-17.1357 11.33022,-30.4515 18.20571,-44.063 7.1244,-14.1043 10.26296,-21.4114 11.06875,-25.7702 0.79205,-4.2846 5.8477,-11.1896 15.27638,-20.8642 17.34745,-17.8002 38.10334,-33.5326 45.59434,-34.5594 3.54266,-0.4855 4.56377,-2.9222 5.50259,-13.1311 0.51803,-5.6339 2.25919,-8.6579 4.98335,-8.655 2.83276,0 4.9454,2.5953 6.65364,8.1649 1.62572,5.3004 2.50043,6.3909 5.12592,6.3909 2.55281,0 6.83822,-2.2834 9.32369,-4.968 2.71733,-2.935 4.13254,-5.9433 4.54145,-9.6534 0.41605,-3.7744 0.83488,-5.0245 2.20734,-6.5876 1.38748,-1.5804 2.89491,-2.2246 5.20505,-2.2246 3.42264,0 6.33491,1.9461 9.02669,6.032 5.64215,8.5643 19.58222,12.2056 24.47328,6.3928 1.12602,-1.3381 2.47804,-3.9281 4.13547,-7.9221 2.33562,-5.6282 5.46366,-9.1184 8.17204,-9.1184 1.74822,0 2.90032,0.9614 3.92023,3.2712 0.73094,1.6554 0.85202,2.6109 1.02577,8.0905 0.22201,7.0064 0.196,6.9313 3.44992,9.97 3.6321,3.3918 11.94452,8.0964 15.67266,8.8704 3.4279,0.7116 4.40189,0.075 10.31549,-6.7367 3.3783,-3.8917 7.53407,-5.5611 11.19472,-4.4969 4.07813,1.1855 6.97364,5.1356 7.00753,9.5599 0.0286,3.6902 -1.36343,6.0669 -4.65929,7.9565 -2.33419,1.3383 -2.84042,1.8605 -2.84042,2.9302 0,2.2725 5.52348,7.3491 10.88974,10.0087 2.88319,1.429 3.26872,1.5266 6.02896,1.5266 2.85861,0 2.98442,-0.035 4.11052,-1.1631 1.14414,-1.1456 1.16165,-1.2125 1.16165,-4.4382 0,-3.6082 0.18503,-4.1627 1.38868,-4.1627 2.16908,0 4.23866,2.7105 5.4221,7.1011 0.89208,3.3098 0.88516,11.179 -0.012,13.7694 -0.81046,2.3397 -2.15247,3.9834 -3.25234,3.9834 -1.32045,0 -2.90281,1.6185 -3.74565,3.8316 -1.06726,2.8018 -1.13873,8.1435 -0.13641,10.1975 1.40071,2.8705 3.7788,2.8723 15.59413,0.011 3.66674,-0.8878 6.90435,-1.614 7.19474,-1.614 0.29039,0 -1.21643,1.8773 -3.34846,4.1718 -10.86269,11.6907 -14.03417,15.644 -14.52477,18.1058 -0.37141,1.8637 0.43522,3.1598 3.27249,5.2581 4.85859,3.5931 4.90632,5.2947 0.44896,16.0029 -3.12277,7.5023 -4.05798,11.6747 -3.09196,13.7949 0.89553,1.9653 -0.88148,7.4428 -5.41624,16.6954 -4.58271,9.3503 -10.14181,17.7734 -13.1729,19.9593 -1.40282,1.0117 -1.7761,1.544 -2.38537,3.402 -1.87208,5.7088 -3.16832,15.8852 -3.94398,30.9621 -0.72674,14.1254 -1.65263,23.9337 -2.7023,28.6259 -0.44551,1.9914 -0.73019,2.516 -1.85712,3.4215 -2.26076,1.8169 -5.04791,8.0273 -7.4913,16.6927 -3.2349,11.4722 -4.33304,21.1996 -2.89032,25.6014 2.29969,7.0166 -0.64715,7.1456 -12.77407,0.5597 -3.04026,-1.6511 -7.19437,-3.6282 -9.2314,-4.3936 -10.03592,-3.7707 -21.67284,-4.1315 -28.11687,-0.8719 -1.02352,0.5177 -2.65142,1.651 -3.61759,2.5184 -5.91518,5.3102 -10.17984,3.7053 -12.47285,-4.6937 -0.79625,-2.9162 -1.08432,-13.1647 -0.51691,-18.3835 1.12678,-10.3628 3.29744,-16.4738 7.44238,-20.9521 1.06004,-1.1453 4.65493,-4.1312 7.98874,-6.6354 10.03554,-7.5384 16.53617,-13.8992 25.95283,-25.395 7.87819,-9.6176 12.05837,-15.8288 13.84199,-20.5675 1.6884,-4.4856 0.85337,-5.5643 -2.95022,-3.8112 -3.03929,1.401 -6.0845,1.7496 -9.91335,1.1352 -5.29825,-0.8502 -7.80574,-2.2786 -10.0236,-5.7101 -1.71432,-2.6524 -2.59512,-5.8162 -2.61489,-9.3923 -0.0188,-3.4512 0.54667,-6.001 2.00901,-9.0539 2.01915,-4.2155 8.32903,-9.5865 11.26227,-9.5865 2.18795,0 3.52876,2.4124 3.52876,6.3489 0,0.9756 -0.41116,4.1403 -0.91364,7.0327 -1.08364,6.237 -1.07334,9.8958 0.0316,11.1348 1.0653,1.1948 2.74792,1.7586 5.22039,1.749 4.87325,-0.019 8.84692,-1.7474 12.55649,-5.4619 3.48224,-3.4868 4.88273,-6.3647 4.91174,-10.0928 0.0128,-1.6193 -0.2423,-3.6636 -0.62919,-5.0463 -0.54148,-1.9354 -0.58214,-2.5771 -0.24327,-3.8355 0.22381,-0.8313 0.70118,-1.7594 1.06072,-2.0627 3.07896,-2.5967 3.61826,-3.6962 5.11133,-10.421 1.96662,-8.8576 2.88011,-18.3344 2.63,-27.2847 -0.14272,-5.106 -0.31662,-6.7055 -0.94039,-8.6465 -0.92995,-2.8936 -2.6052,-5.2023 -4.42226,-6.0944 -1.73988,-0.8542 -2.88101,-0.3989 -3.67087,1.4645 -0.49061,1.1573 -0.50511,1.6545 -0.11101,3.816 0.24929,1.367 0.51909,3.0446 0.59965,3.7281 l 0.1464,1.2427 -0.90387,-1.4202 c -1.33134,-2.092 -5.15094,-10.9526 -7.32303,-16.9882 -3.07115,-8.5336 -5.05219,-9.9803 -11.2135,-8.1892 -4.34703,1.2637 -7.42471,0.081 -12.04485,-4.6306 -2.82705,-2.8828 -3.73099,-3.5614 -6.59449,-4.9511 -1.82511,-0.8857 -4.91609,-2.0479 -6.86888,-2.5825 -3.0604,-0.838 -4.23678,-0.9744 -8.52135,-0.9883 -4.61413,-0.015 -5.09676,0.047 -6.72759,0.8716 -0.96625,0.4882 -2.07589,1.327 -2.46594,1.864 l -0.70907,0.9765 0.71967,0.9763 c 1.26588,1.7174 3.74129,2.283 10.89207,2.4889 3.47863,0.1002 6.19482,0.2966 6.03595,0.4365 -0.15888,0.14 -2.60565,1.1678 -5.43721,2.2839 -6.90525,2.7222 -9.27048,4.2776 -10.68419,7.026 -0.77934,1.5152 -0.84225,2.7082 -0.27288,5.1748 0.35006,1.5167 0.30414,2.0837 -0.34098,4.2075 -1.91453,6.3031 -9.18578,15.1867 -15.29832,18.6904 -0.9458,0.5422 -2.78781,1.2093 -4.09338,1.4824 -2.92219,0.6114 -4.00771,1.294 -4.70258,2.9571 -1.07702,2.5776 0.78137,5.4331 3.8689,5.9446 2.12061,0.3513 2.74806,0.7549 3.3266,2.1395 0.63286,1.5147 0.62234,3.9405 -0.0301,6.9065 -1.63631,7.439 0.50639,12.0962 5.32268,11.5689 2.34584,-0.2568 5.54625,-1.8773 8.16941,-4.1364 3.08399,-2.6561 6.02858,-4.4985 7.61891,-4.7672 2.68914,-0.4543 5.95741,1.7874 6.72578,4.6132 2.08724,7.6766 -4.75203,30.0147 -12.93842,42.2591 -3.09159,4.624 -3.31277,5.0851 -3.66118,7.6323 -0.80655,5.8975 2.15939,11.48 6.09405,11.4704 0.90928,0 2.22153,-0.3778 3.37882,-0.9671 1.04065,-0.5298 2.04959,-0.9108 2.24206,-0.8467 0.19239,0.064 -0.22697,0.8721 -0.93206,1.7955 -1.02381,1.3408 -1.93978,1.9974 -4.54987,3.2611 -5.21971,2.5273 -10.21621,3.6035 -22.51237,4.849 -2.38259,0.2413 -4.26263,0.5511 -4.17779,0.6884 0.0849,0.1372 5.77638,3.3357 12.64781,7.1075 6.87151,3.772 12.34644,6.8991 12.1666,6.9492 -1.68351,0.4688 -20.66909,3.7623 -23.40565,4.0602 -5.80163,0.6316 -9.96633,-0.1939 -11.86028,-2.351 -1.26641,-1.4423 -1.62572,-3.0406 -1.32668,-5.9014 0.3043,-2.9115 -0.37787,-4.0965 -4.58759,-7.9692 -7.28396,-6.7009 -7.60704,-7.0383 -7.82544,-8.175 -0.42739,-2.2244 3.37477,-5.1378 8.05127,-6.1694 1.91243,-0.4218 5.273,-0.3605 12.02494,0.2195 2.14638,0.1844 2.85906,0.1104 3.796,-0.3942 1.32097,-0.7113 1.44791,-0.9541 2.10971,-4.0339 0.26702,-1.2427 0.90424,-2.9739 1.41604,-3.8473 1.31669,-2.2468 4.80682,-5.6518 8.22795,-8.0273 3.21094,-2.2295 5.37513,-4.6809 6.32244,-7.1614 0.5121,-1.3409 0.56794,-2.1592 0.33376,-4.8922 -0.67563,-7.8859 -0.2659,-9.7425 2.39987,-10.8746 l 1.46422,-0.6219 -1.4334,-0.5735 c -0.78836,-0.3154 -4.21303,-1.1564 -7.6102,-1.8687 -10.43987,-2.1893 -14.39918,-3.9435 -18.80663,-8.3323 -2.46872,-2.4584 -2.94128,-3.1831 -5.78877,-8.8762 -1.70524,-3.4095 -3.1705,-6.2692 -3.2561,-6.3547 -0.23907,-0.2391 -9.57057,19.0226 -10.38584,21.438 -2.12166,6.2856 -1.75581,9.205 1.7262,13.7737 2.9609,3.8847 2.87252,7.6479 -0.24004,10.224 -0.96482,0.7986 -2.56333,4.5136 -2.81758,6.5482 -0.15962,1.2777 -0.0541,2.4828 0.33564,3.8224 0.71298,2.4524 0.71621,3.4316 0.0143,4.4332 -0.95603,1.3649 -2.60843,1.9423 -6.289,2.1976 -5.07399,0.3518 -5.57346,1.178 -2.71131,4.4849 1.80015,2.0799 2.32472,3.1247 3.04965,6.0737 1.00225,4.0767 0.81294,10.7531 -0.5296,18.679 -0.6225,3.6751 -1.13182,6.9446 -1.13182,7.2656 0,0.3211 2.04065,-2.7657 4.53477,-6.8594 5.17965,-8.5017 6.72015,-10.8162 7.1991,-10.8162 0.58289,0 0.3775,2.5336 -0.9047,11.1594 -1.33112,8.9545 -1.54636,13.3456 -0.74778,15.2568 0.93491,2.2376 3.43001,3.5469 9.09155,4.7707 11.60505,2.5087 21.39244,2.6665 26.18828,0.4222 3.01802,-1.4123 3.56724,-1.408 2.55041,0.02 -2.12324,2.9818 -9.41793,6.6767 -21.63759,10.9598 -8.31551,2.9146 -13.5622,5.9714 -15.98101,9.3104 -0.58387,0.8061 -1.06252,1.881 -1.06358,2.3886 0,1.6542 -0.74619,3.6553 -1.67637,4.5173 -1.02817,0.9529 -2.10039,1.0448 -5.05993,0.4335 -2.31015,-0.4771 -5.59728,0.1035 -8.90682,1.5733 -2.56055,1.1373 -7.66257,5.02 -8.35444,6.3578 -0.50856,0.9836 -0.5012,1.121 0.0963,1.7884 0.35592,0.3976 1.8024,1.2512 3.21431,1.8971 3.45315,1.5793 4.76218,2.6443 5.96343,4.8515 1.41852,2.6063 1.41544,5.4057 -0.009,8.0226 -1.23447,2.2681 -3.08858,3.6984 -6.08833,4.6966 -1.23643,0.4115 -2.3342,0.8875 -2.43949,1.0577 -0.38907,0.6297 1.36118,1.0913 5.42248,1.4302 11.55567,0.9645 12.97081,1.5548 10.97105,4.5766 -2.26956,3.4296 -11.10903,5.2864 -23.13344,4.8593 -16.58036,-0.5889 -28.19894,-0.6744 -32.17419,-0.2367 -7.57389,0.8337 -12.01704,2.6007 -18.10755,7.2008 -5.69025,4.2977 -13.42001,10.3758 -13.43579,10.5649 -0.008,0.098 2.50163,1.1218 5.57729,2.2756 7.47349,2.8035 10.85111,4.5617 13.14968,6.8452 3.23956,3.2184 3.25482,3.2903 3.26376,15.4147 0.012,16.2829 1.39365,29.8352 3.09948,30.4038 0.20412,0.068 0.69998,-0.4337 1.1019,-1.1149 0.40613,-0.6884 1.38666,-1.5732 2.20726,-1.9919 1.30264,-0.6645 1.83833,-0.7257 4.55017,-0.5195 l 3.0737,0.2338 2.84043,-1.4438 c 4.19552,-2.1326 7.11643,-4.4726 14.02469,-11.2353 18.00836,-17.6287 41.06943,-36.2504 51.71417,-41.7587 2.96165,-1.5327 3.6744,-1.671 3.6744,-0.7132 0,1.1272 -1.85276,3.2891 -6.59464,7.6952 -7.37586,6.8536 -10.0384,9.6502 -11.89469,12.4938 -2.215,3.3931 -2.75881,5.0788 -2.13369,6.6141 1.28137,3.1472 0.80422,3.4125 -2.65667,1.477 -2.35742,-1.3182 -3.9509,-1.5839 -4.28465,-0.7142 -0.11145,0.2907 -0.01,1.3336 0.22644,2.3175 0.36539,1.5231 0.33954,2.0646 -0.17398,3.6434 -1.57049,4.8289 -5.92781,10.5703 -16.08526,21.1951 -7.17415,7.5043 -10.72628,11.5744 -10.72628,12.2903 0,1.0293 3.20763,1.1317 9.47949,0.3028 10.89357,-1.4397 12.29962,-1.393 10.55576,0.3509 -0.4985,0.4985 -3.78819,0.5579 -30.88305,0.5579 h -30.32504 l -0.19923,-0.9764 c -1.05057,-5.1479 -3.8713,-13.2536 -8.00046,-22.9898 -2.9131,-6.869 -8.8373,-18.6801 -10.48361,-20.9014 -1.26814,-1.7111 -1.29805,-1.7268 -2.96977,-1.5662 -5.379185,0.5169 -10.477071,6.1141 -13.342148,14.6488 -1.330517,3.9636 -2.201922,8.7312 -2.713717,14.8478 -0.375241,4.4848 -0.364119,5.4722 0.07628,6.7461 0.630988,1.8254 1.685016,2.084 3.896332,0.9559 0.81489,-0.4157 1.565147,-0.6723 1.667356,-0.5701 0.513824,0.5138 -0.492256,2.9067 -2.595276,6.1724 l -2.339378,3.6329 H 41.983995 -2.1982153 Z M 304.29469,1417.311 c 0.54456,-0.6094 1.09115,-1.5108 1.21471,-2.0029 0.34563,-1.3774 -0.18233,-4.054 -0.95145,-4.8231 -0.63482,-0.6348 -0.7731,-0.6479 -1.71402,-0.1613 -1.93197,0.9991 -4.64531,4.7344 -4.64531,6.3949 0,0.2992 0.33804,0.8822 0.75123,1.2954 0.62648,0.6264 1.0508,0.7225 2.55311,0.5782 1.45054,-0.1394 1.99473,-0.3892 2.79173,-1.2812 z m -136.19706,-93.2868 c 1.48346,-0.7039 3.59692,-2.9999 4.29127,-4.6617 0.64549,-1.5448 0.70524,-3.8283 0.11859,-4.5351 -1.01518,-1.2233 -4.15419,-0.1602 -6.1057,2.0677 -1.88755,2.1549 -2.63969,5.7579 -1.47135,7.0489 0.72335,0.7993 1.60483,0.8216 3.16719,0.08 z m 34.77187,-22.3888 c 0.79655,-1.6787 0.57703,-5.3215 -0.4625,-7.6713 -0.83683,-1.8918 -1.69576,-2.1788 -2.10813,-0.7044 -0.45528,1.6281 -0.32398,7.9883 0.1833,8.8764 0.68863,1.2056 1.67585,0.9985 2.38733,-0.5007 z m -14.03101,-3.064 c 1.27971,-0.6475 1.30512,-1.5316 0.0624,-2.1743 -1.75739,-0.9088 -3.66636,-1.0359 -6.11945,-0.4074 -2.88071,0.7379 -4.0876,1.4758 -3.52432,2.1544 0.54298,0.6543 1.35306,0.7809 5.3238,0.8316 2.09219,0.027 3.70882,-0.1268 4.25752,-0.4043 z m -88.76063,277.0937 c 0,-0.6481 1.50292,-2.1783 2.1394,-2.1783 1.05771,0 2.41851,0.7466 3.01207,1.6525 l 0.54577,0.8329 h -2.84862 c -1.56672,0 -2.84862,-0.1382 -2.84862,-0.3071 z m 12.69936,-0.8468 c -0.89846,-2.5869 -3.64682,-7.5599 -5.60013,-10.133 -3.49442,-4.6032 -5.6801,-5.8771 -9.466036,-5.517 -2.019976,0.1922 -2.260166,0.1374 -3.106695,-0.7092 -0.562674,-0.5626 -0.917474,-1.3136 -0.917474,-1.9421 0,-1.5853 1.927086,-5.0708 4.186049,-7.5712 2.805026,-3.1049 3.980206,-4.5682 3.980206,-4.9557 0,-0.6198 -2.047784,-0.3257 -6.079693,0.8732 -2.221688,0.6606 -4.398884,1.2847 -4.838232,1.3869 -1.32969,0.3095 -0.922809,-0.5741 0.887638,-1.9277 7.013098,-5.2436 11.935047,-7.0409 13.612027,-4.9703 0.55786,0.6887 0.67894,1.4168 0.67894,4.0842 0,2.1787 0.23312,4.0629 0.70914,5.7303 2.28482,8.0039 7.67212,18.7609 13.09249,26.1422 0.46723,0.6362 0.3394,0.6633 -3.12518,0.6633 h -3.61233 z m 123.1438,-1.198 c -0.44355,-4.3292 -1.77076,-6.3459 -4.43232,-6.7347 -3.59339,-0.525 -7.78936,-2.8327 -10.73297,-5.9028 -3.0571,-3.1885 -2.03313,-3.8234 3.88017,-2.4057 4.21341,1.01 6.82259,0.9518 8.17046,-0.1823 1.44528,-1.2161 1.75409,-2.9115 2.00435,-11.0045 1.00112,-32.3751 4.02642,-53.3871 8.99557,-62.4787 1.01863,-1.8636 2.16419,-3.2084 4.6417,-5.4482 1.8091,-1.6358 3.37439,-2.8889 3.47841,-2.7849 0.10401,0.1041 -0.77521,1.5172 -1.95384,3.1405 -1.17864,1.6232 -2.49638,3.7501 -2.92836,4.7265 -0.98098,2.2174 -1.32435,7.195 -0.69532,10.0785 0.58049,2.6607 5.07497,14.6552 5.36784,14.3252 0.12693,-0.1429 1.63812,-3.2707 3.35823,-6.9505 3.79135,-8.1109 5.4823,-10.6117 10.60085,-15.6778 2.98239,-2.9518 4.81253,-4.4206 7.49401,-6.0143 6.08969,-3.6193 9.8318,-6.8707 10.3327,-8.9779 0.37412,-1.574 1.1645,-2.195 3.84125,-3.018 3.25504,-1.0009 11.19644,-1.1509 12.11842,-0.229 0.51067,0.5107 0.41943,0.6836 -1.02494,1.9437 -0.87201,0.7607 -4.10271,2.974 -7.17934,4.9183 -8.07366,5.1025 -12.19952,8.2813 -17.04203,13.1302 -8.09095,8.1018 -12.35433,15.1773 -16.91472,28.0716 -4.39558,12.4282 -6.73037,22.6007 -6.80462,29.647 -0.0406,3.8508 0.0541,4.6575 0.71561,6.0944 0.93769,2.0367 1.83863,2.5568 4.05934,2.3434 2.25092,-0.2163 4.69281,-1.7268 8.81843,-5.455 3.52643,-3.1867 6.12749,-4.931 9.25478,-6.2063 1.53028,-0.6242 2.76557,-0.8137 5.70888,-0.8762 4.15208,-0.088 5.12502,-0.4173 6.94704,-2.3497 1.42544,-1.5119 2.67569,-4.0272 3.67696,-7.3977 1.41462,-4.7619 3.64998,-8.345 6.44983,-10.3387 0.58431,-0.416 2.03034,-0.8632 3.40723,-1.0535 4.15148,-0.5738 5.47125,-1.5078 4.65681,-3.2954 -1.10265,-2.4201 3.58625,-7.5413 13.6266,-14.8829 3.66306,-2.6784 6.74217,-4.8698 6.84258,-4.8698 0.1004,0 -3.55844,4.3538 -8.13093,9.6752 -4.57234,5.3214 -8.26974,9.7228 -8.21638,9.7808 0.25387,0.2761 11.55988,-6.0559 14.45292,-8.0942 1.8015,-1.2694 5.52235,-4.4651 8.26861,-7.1015 5.34604,-5.1322 7.81431,-6.728 11.65127,-7.5328 2.31262,-0.4851 3.08986,-0.2434 3.08986,0.9605 0,2.1429 -4.02297,6.6304 -13.84718,15.4464 -8.92373,8.0079 -15.08541,14.5985 -16.76592,17.9329 -0.29528,0.5858 -0.64745,1.7043 -0.78272,2.4854 -0.41643,2.406 -2.92257,6.9824 -5.74767,10.4958 -3.0861,3.8381 -4.1018,5.6633 -4.94149,8.8801 -1.08687,4.1632 0.14219,9.2682 2.4246,10.0708 2.03479,0.7156 4.13224,-0.9598 10.99534,-8.7836 4.606,-5.2508 8.16242,-8.6218 11.01584,-10.4416 1.26326,-0.8057 1.93318,-0.9639 4.33463,-1.0244 5.23812,-0.1318 10.76679,-2.4836 29.29205,-12.4607 6.54189,-3.5233 17.5663,-9.4067 24.49876,-13.0742 16.00784,-8.4687 18.03022,-9.6015 23.43368,-13.1257 5.50597,-3.5912 9.94153,-7.2676 12.2994,-10.1945 3.12293,-3.8765 3.7812,-5.1357 6.3673,-12.1801 2.45151,-6.6776 4.08475,-9.7261 6.94651,-12.9659 3.50892,-3.9726 5.29878,-6.3608 8.91869,-11.9003 4.45495,-6.8173 8.48371,-13.8342 11.61265,-20.2257 3.05138,-6.2333 4.06595,-8.9286 4.59315,-12.2018 1.24537,-7.7334 21.92235,-41.2369 33.81907,-54.7982 4.26556,-4.8623 7.8718,-11.7471 14.84056,-28.3323 7.38616,-17.5787 10.18157,-27.2528 9.28168,-32.1209 -0.51142,-2.7663 -1.46947,-4.4155 -3.83951,-6.609 -3.57385,-3.3078 -8.17047,-5.2602 -11.18532,-4.7508 -1.74138,0.2942 -3.37282,1.9122 -3.66982,3.6396 -0.12461,0.7247 -0.69104,3.7143 -1.25867,6.6435 -0.96325,4.9709 -1.56432,10.1144 -2.41461,20.6621 -0.35172,4.3629 -0.90808,6.2145 -1.99224,6.6305 -0.78942,0.303 -2.64278,-0.5392 -4.20462,-1.9104 -4.48523,-3.9382 -5.61652,-11.5931 -4.89835,-33.1457 0.78092,-23.436 -0.66939,-33.5048 -6.36505,-44.1904 -1.48255,-2.7813 -1.64984,-3.2747 -1.04508,-3.0828 0.84104,0.267 0.82683,0.3433 0.34209,-1.8435 -0.34976,-1.5781 -0.61415,-1.8876 -3.57828,-4.1893 -2.01381,-1.5638 -4.55317,-4.0652 -6.84851,-6.746 -6.43284,-7.5134 -14.31358,-14.6288 -18.66505,-16.8527 -0.68344,-0.3493 -2.12143,-0.8207 -3.19545,-1.0476 -1.07409,-0.2269 -2.59197,-0.8317 -3.37304,-1.3439 -2.75843,-1.809 -10.46925,-8.3216 -15.48154,-13.0759 -6.17852,-5.8605 -12.09513,-10.5991 -19.84646,-15.8952 -5.29073,-3.6148 -42.37702,-33.1636 -56.45372,-44.98 -2.83156,-2.3769 -7.465,-6.1059 -10.29663,-8.2866 -2.83156,-2.1807 -22.08438,-17.617 -42.78413,-34.3028 -60.75227,-48.9718 -59.71846,-48.1261 -58.93912,-48.2132 4.00087,-0.4473 21.44595,-1.1634 28.33985,-1.1634 h 8.73915 l 67.20631,46.2041 c 36.96342,25.4122 67.9253,46.7927 68.80399,47.5121 0.87877,0.7195 4.0253,3.0297 6.99229,5.1337 7.043,4.9945 14.02206,10.6121 16.33912,13.1518 1.94474,2.1315 3.0238,2.4622 3.2337,0.9909 0.0624,-0.4373 0.2347,-0.7952 0.38298,-0.7952 0.67992,0 6.8897,4.6527 9.44507,7.0768 5.23774,4.9685 14.1904,11.1558 22.94939,15.8604 2.41438,1.2968 7.38564,4.3636 11.04719,6.8149 5.4971,3.6803 6.65725,4.6029 6.65725,5.2941 0,1.5177 0.98804,3.2394 2.47863,4.3192 1.81105,1.3119 3.1197,1.6246 4.47201,1.0682 0.57094,-0.2349 1.15789,-0.4012 1.30436,-0.3697 0.14648,0.032 0.26635,-0.1887 0.26635,-0.4894 0,-0.3007 0.3073,-1.1491 0.68284,-1.8853 2.37891,-4.6631 4.34448,-20.1736 7.13831,-56.3295 0.40748,-5.2726 0.97361,-10.4179 1.25814,-11.434 0.60266,-2.1522 1.52554,-2.9458 3.42557,-2.9458 2.43407,0 5.30772,3.3524 6.69528,7.8107 1.86486,5.9918 5.55918,9.5233 10.07282,9.629 4.58278,0.1073 5.15853,0.9895 2.03162,3.1129 -2.62714,1.7841 -4.42143,3.8505 -5.73879,6.6091 -2.97075,6.2209 -4.69492,14.8897 -6.00882,30.2113 -0.75785,8.8373 -1.43732,11.9452 -3.69395,16.8972 -1.66961,3.6637 -3.12796,5.842 -6.96988,10.4105 -3.75392,4.4637 -5.3943,7.0663 -5.25909,8.3437 0.084,0.7933 0.23906,0.8789 1.45887,0.8057 1.90552,-0.1146 6.76855,-2.5093 14.25752,-7.0212 7.22128,-4.3505 10.79452,-6.0976 16.11539,-7.8791 5.05618,-1.6929 8.07945,-1.9012 10.696,-0.7369 7.01324,3.1206 5.64162,7.8784 -3.55529,12.3323 -1.65984,0.8038 -5.81402,2.3583 -9.2314,3.4543 -7.33814,2.3536 -10.35413,3.5925 -13.34734,5.4829 -3.31089,2.091 -4.03957,3.584 -2.62631,5.3806 1.1279,1.4339 3.49824,2.168 6.12997,1.8984 2.94188,-0.3014 3.80772,0.2432 3.80772,2.395 0,0.8328 -0.25011,2.2483 -0.55583,3.1454 -0.78949,2.3172 -0.56861,4.2183 0.55583,4.7842 1.29933,0.6539 5.89722,0.5555 11.54952,-0.2473 5.02529,-0.7137 10.46392,-0.9432 10.46392,-0.4414 0,0.1509 -0.57553,0.5843 -1.27889,0.963 -4.02033,2.1651 -6.51047,8.606 -4.37626,11.3193 0.64083,0.8146 0.99638,0.9354 2.75174,0.9347 5.80584,0 24.20476,-7.0795 30.88718,-11.8803 3.49126,-2.5083 4.84357,-2.3963 5.2137,0.4315 0.44754,3.4196 1.62828,4.5468 3.66141,3.4954 1.39725,-0.7225 1.9987,-0.7148 2.74858,0.035 0.53224,0.5322 0.57335,1.1464 0.35398,5.2852 -0.17684,3.3374 -0.1222,5.1036 0.19036,6.1466 0.70231,2.3443 2.59948,4.2432 5.61006,5.6151 6.16634,2.8101 12.23732,9.4328 17.0545,18.6042 3.6578,6.9641 4.23197,10.8217 2.46391,16.5532 -3.18388,10.3212 -12.01193,18.6062 -23.02876,21.6124 -3.22476,0.88 -9.89568,0.8824 -13.61082,0.01 -5.13524,-1.2128 -7.86436,-0.3374 -8.64806,2.7737 -0.79873,3.1712 -2.1394,3.9312 -6.78636,3.8472 -3.66418,-0.066 -4.73662,0.212 -6.23421,1.617 -2.24025,2.1018 -3.73926,5.4539 -5.73834,12.8323 -1.57424,5.8101 -3.44263,10.2249 -5.61697,13.2719 -2.14331,3.0036 -3.73521,4.2806 -6.79178,5.4487 -1.83126,0.6997 -2.9748,1.4347 -4.31042,2.7703 -3.47292,3.4729 -5.06881,8.115 -7.75321,22.5517 -3.47224,18.6742 -8.39547,33.4775 -13.12631,39.4689 -1.08582,1.3751 -2.27204,2.3753 -3.75324,3.1648 -3.81487,2.0333 -5.43623,4.8893 -6.17266,10.8728 -0.72711,5.908 -1.98638,7.8428 -5.40662,8.3069 -3.23483,0.439 -5.64199,1.8563 -9.23696,5.4386 -6.25593,6.2338 -11.64323,16.2635 -15.17815,28.2578 -1.72597,5.8564 -2.34283,9.5009 -3.42534,20.2382 -0.92003,9.1265 -2.88372,17.8659 -5.26872,23.4486 -1.92385,4.5031 -2.5504,7.0606 -2.56814,10.483 -0.0233,4.4891 0.73237,6.6316 2.61842,7.4247 0.9516,0.4001 1.32443,0.3899 2.46639,-0.067 1.07537,-0.4303 1.45159,-0.4503 1.87403,-0.1 0.78918,0.655 0.6633,3.7157 -0.33308,8.0998 -1.8094,7.9611 -1.46249,8.2955 4.16042,4.0089 3.82802,-2.9183 6.16206,-4.3008 7.26088,-4.3008 0.39222,0 0.80452,0.4189 1.04846,1.0651 1.03615,2.745 4.64366,0.4766 13.80119,-8.678 11.7244,-11.7208 24.1045,-27.0205 34.06167,-42.0949 4.69626,-7.1097 7.27275,-11.7879 10.95084,-19.883 1.64135,-3.6127 4.1384,-8.9652 5.5488,-11.8943 1.41048,-2.9293 2.87823,-6.2046 3.26174,-7.2787 1.78272,-4.9925 4.12487,-17.0242 5.80598,-29.8246 1.96474,-14.9598 5.28141,-26.9842 7.44298,-26.9842 0.93115,0 1.25318,2.2291 1.25176,8.663 -0.008,30.4295 -14.37777,126.1524 -20.84525,138.8479 -0.3025,0.5938 -1.23733,1.8203 -2.0774,2.7256 -0.93288,1.0053 -1.61888,2.1338 -1.76242,2.8993 -0.27957,1.49 0.5771,4.7226 1.80842,6.8236 0.46302,0.79 1.0795,2.1102 1.37005,2.9337 l 0.52833,1.4974 h -32.3239 c -17.77808,0 -32.2706,-0.1199 -32.20544,-0.2663 0.0654,-0.1465 0.7386,-1.358 1.49668,-2.6922 1.57521,-2.7723 2.03666,-5.1464 1.14421,-5.887 -1.08326,-0.899 -4.17365,-0.3032 -7.82258,1.5082 -3.23182,1.6044 -8.19879,5.0113 -9.57395,6.567 l -0.67165,0.76 -111.5652,0.01 -111.56513,0.01 -0.24147,-2.3567 z m 254.03646,-349.8845 c 0.30895,-0.162 0.76416,-0.5383 1.01156,-0.8363 1.05576,-1.2722 -3.2204,-5.4165 -5.96906,-5.7852 -1.14489,-0.1535 -1.46009,-0.049 -1.94693,0.6462 -1.5293,2.1833 0.008,5.7139 2.80691,6.4558 0.83473,0.2211 3.31336,-0.069 4.09752,-0.4805 z m -294.12701,338.5891 c -1.751,-0.6298 -2.42272,-1.2613 -3.5256,-3.3144 -1.29828,-2.4168 -1.52456,-3.8187 -0.79595,-4.9307 0.53096,-0.8104 0.77836,-0.8952 2.15653,-0.7399 3.16772,0.3571 8.66828,4.0406 8.66828,5.8049 0,2.3378 -3.74858,4.1709 -6.50326,3.1801 z m -52.56611,-22.871 c -0.32736,-0.3618 -1.0057,-2.4788 -1.50742,-4.7045 -1.13881,-5.052 -1.10912,-9.2645 0.0765,-10.8558 1.14068,-1.5309 3.32998,-2.2033 7.24202,-2.2241 5.91676,-0.032 7.00708,1.5941 4.42676,6.6002 -2.11219,4.0977 -8.21848,11.842 -9.33729,11.842 -0.16789,0 -0.57312,-0.296 -0.90057,-0.6578 z m 18.99076,-0.125 c -0.5877,-1.5885 0.57658,-4.7526 2.43122,-6.6072 1.57078,-1.5708 2.88071,-1.7451 4.7742,-0.6354 1.56019,0.9143 3.40363,2.7948 3.40363,3.472 0,1.3937 -6.15026,4.5534 -8.86316,4.5534 -1.17712,0 -1.51186,-0.1501 -1.74589,-0.7828 z m 45.10525,-6.3165 c -1.76799,-0.4181 -2.0671,-0.8961 -0.99864,-1.5961 2.33945,-1.5329 5.99725,-1.9881 8.36436,-1.041 2.29068,0.9165 2.21064,2.0979 -0.17985,2.6525 -1.65465,0.3838 -5.53234,0.3755 -7.18587,-0.015 z m 136.43379,-8.4928 c -0.4065,-0.175 -1.1654,-0.825 -1.68652,-1.4443 -0.74447,-0.8847 -0.94738,-1.4986 -0.94738,-2.8658 0,-1.4677 0.13993,-1.8314 0.8947,-2.3261 0.83368,-0.5462 1.00413,-0.5445 2.49607,0.025 1.89124,0.7223 5.13051,3.7366 5.13051,4.7741 0,0.3988 -0.40854,0.9927 -0.90778,1.3198 -1.04824,0.6869 -3.89821,0.9828 -4.9796,0.5171 z m 60.2108,-33.0444 c -2.36358,-0.5637 -0.43477,-3.8911 3.45533,-5.9605 3.49824,-1.8611 12.05823,-3.6048 12.68869,-2.5847 0.36066,0.5837 -0.94904,1.903 -3.71709,3.7443 -5.08662,3.3839 -10.1564,5.3424 -12.42693,4.8009 z m 151.68957,-86.3476 c -1.18352,-0.5976 -1.33615,-1.8058 -0.45738,-3.621 0.82872,-1.712 3.92414,-4.8371 4.79111,-4.8371 1.34434,0 2.36102,3.6163 1.63511,5.8159 -0.74139,2.2466 -3.94458,3.6645 -5.96884,2.6422 z m 3.46946,-23.0949 c 0,-5.3924 2.36831,-20.7474 4.07873,-26.4443 0.30513,-1.0162 0.81324,-2.106 1.12918,-2.422 0.52781,-0.5278 0.62077,-0.5281 1.14504,0 0.46798,0.4682 0.56501,1.3834 0.53945,5.0849 -0.0549,7.9595 -2.10114,18.2628 -4.64967,23.4135 -1.80308,3.6442 -2.24273,3.717 -2.24273,0.3714 z m 1.24274,-34.2277 c -3.97006,-0.9667 -3.58685,-2.1479 1.53125,-4.7203 3.14969,-1.5829 5.58624,-2.029 7.26096,-1.3293 1.6433,0.6867 2.02381,1.8927 1.09731,3.4783 -1.03253,1.767 -3.01065,2.6031 -6.33904,2.6792 -1.56222,0.035 -3.15998,-0.013 -3.55048,-0.1079 z m -5.99762,-99.6554 c -1.03036,-1.0304 -1.45715,-3.2997 -1.18502,-6.3007 0.52359,-5.7739 5.78764,-11.3452 10.71966,-11.3452 2.62557,0 4.73971,1.4206 6.17416,4.1486 0.55178,1.0491 0.51458,3.4329 -0.0752,4.8279 -1.24822,2.9525 -9.0823,8.2904 -13.63472,9.2903 -0.92138,0.2024 -1.29016,0.088 -1.99893,-0.6209 z"
     style="fill:#000000;stroke-width:0.35505503" />
  <flowRoot
     style="fill:black;fill-opacity:1;stroke:none;font-family:sans-serif;font-style:normal;font-weight:normal;font-size:40px;line-height:1.25;letter-spacing:0px;word-spacing:0px"
     id="flowRoot889"
     xml:space="preserve"><flowRegion
       id="flowRegion891"><rect
         y="1424.4359"
         x="938.72571"
         height="70.219643"
         width="820.46106"
         id="rect893" /></flowRegion><flowPara
       id="flowPara895" /></flowRoot>  <flowRoot
     style="fill:black;fill-opacity:1;stroke:none;font-family:'Latin Modern Roman';font-style:normal;font-weight:normal;font-size:40px;line-height:1.25;letter-spacing:0px;word-spacing:0px;-inkscape-font-specification:'Latin Modern Roman, ';font-stretch:normal;font-variant:normal;"
     id="flowRoot1481"
     xml:space="preserve"><flowRegion
       style="-inkscape-font-specification:'Latin Modern Roman, ';font-family:'Latin Modern Roman';font-weight:normal;font-style:normal;font-stretch:normal;font-variant:normal;"
       id="flowRegion1483"><rect
         style="-inkscape-font-specification:'Latin Modern Roman, ';font-family:'Latin Modern Roman';font-weight:normal;font-style:normal;font-stretch:normal;font-variant:normal;"
         y="1324.08"
         x="697.90869"
         height="208.99939"
         width="1039.3988"
         id="rect1485" /></flowRegion><flowPara
       id="flowPara1487"></flowPara></flowRoot>  <text
     id="text1491"
     y="1564.8025"
     x="630.73029"
     style="font-style:normal;font-weight:normal;font-size:40px;line-height:1.25;font-family:sans-serif;letter-spacing:0px;word-spacing:0px;fill:#cccccc;fill-opacity:1;stroke:none;"
     xml:space="preserve"><tspan
       style="font-style:normal;font-variant:normal;font-weight:normal;font-stretch:normal;font-size:293.33333333px;font-family:'Latin Modern Roman';-inkscape-font-specification:'Latin Modern Roman, ';fill:#cccccc;"
       y="1564.8025"
       x="630.73029"
       id="tspan1489">THEMIS</tspan></text>
  <text
     id="text1491-2"
     y="1560.8779"
     x="625.7995"
     style="font-style:normal;font-weight:normal;font-size:40px;line-height:1.25;font-family:sans-serif;letter-spacing:0px;word-spacing:0px;fill:#000000;fill-opacity:1;stroke:none"
     xml:space="preserve"><tspan
       style="font-style:normal;font-variant:normal;font-weight:normal;font-stretch:normal;font-size:293.33334351px;font-family:'Latin Modern Roman';-inkscape-font-specification:'Latin Modern Roman, '"
       y="1560.8779"
       x="625.7995"
       id="tspan1489-8">THEMIS</tspan></text>
  <flowRoot
     style="fill:black;fill-opacity:1;stroke:none;font-family:sans-serif;font-style:normal;font-weight:normal;font-size:40px;line-height:1.25;letter-spacing:0px;word-spacing:0px"
     id="flowRoot1597"
     xml:space="preserve"><flowRegion
       id="flowRegion1599"><rect
         y="420.90402"
         x="1022.6042"
         height="98.901497"
         width="559.81982"
         id="rect1601" /></flowRegion><flowPara
       id="flowPara1603"></flowPara></flowRoot></svg>
